<?xml version="1.0" encoding="utf-8"?>
<!DOCTYPE svg PUBLIC "-//W3C//DTD SVG 1.1//EN" "http://www.w3.org/Graphics/SVG/1.1/DTD/svg11.dtd">

<svg version="1.1" baseProfile="full" width="500" height="500" xmlns="http://www.w3.org/2000/svg">
    <polygon points="50,350 250,450 250,375 50,275" style="fill:#1D528A" />
    <polygon points="250,375 250,450 450,350 450,275" style="fill:#366ba3" />
    <polygon points="250,200 50,276 250,376 450,276" style="fill:#5085BD" />

    <polygon points="50,225 250,325 250,250 50,150" style="fill:#43B8B0" />
    <polygon points="250,250 250,325 450,225 450,150" style="fill:#5cd1c9" />
    <polygon points="250,50 50,151 250,251 450,151" style="fill:#76EBE3" />

    <polyline points="250,50 50,150 50,225 110,255 50,275 50,350 250,450 450,350 450,275 390,255 450,225 450,150 250,50" style="fill:none;stroke:#828282;stroke-width:3" />
</svg>
